<svg xmlns="http://www.w3.org/2000/svg" xmlns:xlink="http://www.w3.org/1999/xlink" width="1080" height="417" viewBox="0 0 1080 417">
  <defs>
    <clipPath id="clip-path">
      <rect id="Rectangle_18" data-name="Rectangle 18" width="1080" height="417" transform="translate(0 1923)" fill="#fff" stroke="#707070" stroke-width="1"/>
    </clipPath>
  </defs>
  <g id="buildings" transform="translate(0 -1923)" clip-path="url(#clip-path)">
    <g id="buildings-2" data-name="buildings" transform="translate(-156.301 1767.672)">
      <g id="Group_11" data-name="Group 11" transform="translate(101.425 155.328)" opacity="0.3">
        <path id="Path_6" data-name="Path 6" d="M175.793,460.164h91.431V271.559h2.6v-5.391h-5.671v-6.9H219.167V248.784H201.98l-2.567-6.846h-4.246V229.706h-1.894v12.232h-7.877v17.33h-6.528v6.9H173.2v5.391h2.6Z" transform="translate(-48.011 -124.976)" fill="#9325ef"/>
        <path id="Path_7" data-name="Path 7" d="M190.321,228.991a1.7,1.7,0,1,0-1.7,1.7A1.7,1.7,0,0,0,190.321,228.991Z" transform="translate(-42.412 -125.962)" fill="#9325ef"/>
        <path id="Path_8" data-name="Path 8" d="M1060.643,501.558V248L948.07,224.629,960.4,501.558H630.077V344.9H624V251.151H608.3V226.04h-5.607V189.211H571.8V162.143h-2.749v27.067H563V155.328h-2.749v33.883H540.715v61.94H530.627V344.9h-8.648V501.558H434.135V293.018h1.517v-2.411H424.841v-14.49h1.4V273.8h-9.923v-8.331h.89v-1.781h-4.272v-7.87H408.22V227.722h-1.57v28.093h-1.907V240.154h-1.57v15.661h-4.714v7.87h-4.931v1.781h1.548V273.8h-9.923v2.32h1.4v14.49H375.741v2.411h1.517v208.54H84.29V530H1280.1V501.558Z" transform="translate(-84.29 -155.328)" fill="#9325ef"/>
      </g>
      <path id="Path_9" data-name="Path 9" d="M1271.035,508.083v-25.6h-35.99L1221.423,381.7h-2.043V369.6h-7.156V381.7h-1.772v-4.527h-5.009V381.7h-10.375V371.15h-2.863v-7.335h-20.393v7.335h-2.863V381.7h-2.863v60.527h-18.126V288.656H1142V254.975h-1.908v33.681h-4.533V241.933h-1.908v46.723h-3.936V263.364h-1.908v25.292h-35.182v109.01h-39.116v70.62h-36.531L987.97,414.819a75.273,75.273,0,0,0,13.708-10.13l5.949,6.349a6.068,6.068,0,1,0,.535-.418l-5.991-6.394q.762-.72,1.505-1.463a75.019,75.019,0,0,0,14.958-21.282l6.625,3.058a6.093,6.093,0,1,0,.2-.651l-6.545-3.022a74.627,74.627,0,0,0,6.68-28.377l7.132.232a6.093,6.093,0,1,0,.02-.676l-7.13-.232c.018-.7.03-1.4.03-2.1a75.063,75.063,0,0,0-4.468-25.616l5.958-2.194a5.994,5.994,0,1,0-.235-.634l-5.955,2.192a74.673,74.673,0,0,0-15.345-24.8l4.661-4.368a6.069,6.069,0,1,0-.463-.493l-4.661,4.368q-.72-.76-1.464-1.505a74.911,74.911,0,0,0-24.22-16.258l2.564-6.242a6.112,6.112,0,1,0-.632-.242l-2.557,6.229a74.776,74.776,0,0,0-25.425-5.41l.277-8.533c.065,0,.128,0,.193,0a6.087,6.087,0,1,0-.867-.062l-.279,8.569c-.7-.018-1.4-.03-2.1-.03A75.135,75.135,0,0,0,926,278.815l-2.454-6.964a6.159,6.159,0,1,0-.639.221l2.456,6.967a74.59,74.59,0,0,0-25.779,15.7l-4.449-4.748a6.118,6.118,0,1,0-.486.472l4.442,4.74q-.761.72-1.505,1.463a75.018,75.018,0,0,0-14.958,21.282l-5.655-2.611a6.082,6.082,0,1,0-.251.629l5.62,2.6a74.658,74.658,0,0,0-6.678,28.375L868.4,346.7a6.084,6.084,0,1,0-.018.676l7.256.237q-.03,1.048-.03,2.1a75.066,75.066,0,0,0,4.468,25.614l-5.958,2.194a6.02,6.02,0,1,0,.235.635l5.955-2.192a74.659,74.659,0,0,0,15.345,24.8l-4.661,4.368a6.068,6.068,0,1,0,.463.493l4.661-4.368q.72.76,1.464,1.505a75.5,75.5,0,0,0,15.706,12.056l-29.008,53.467H860.788V432.038h-9.576V363.209h3.723v-1.5h-82.3v1.5h3.724V397.92H768.3l-7.7,39.56V307.738H757.22V260.751h-17v-17.89h-9.1V227.836h-3.191V202.075h-.825v25.761h-3.192v15.025h-9.1v17.89H697.945v46.987h-3.508v85.306h-26.16v75.241H581.485V322.8h6.977v-2.29h-6.977v-4.1h-8.841v-6.732h-72.31v6.732h-8.841v4.1h-6.977v2.29h6.977v90.565H479.665V396.373H406.7v20.751H390.792v38.64H365.033V329.47h-8.586v-8.588h-6.8V298.164h-1.432v22.718H345V292.439h-1.432v28.443h-3.957v8.588h-2.125V455.764H284.176V381.7h2.5V376.7H270.222V363.1h-7.871V376.7h-7.156V363.1H248.04V376.7H234.12V363.1H191.512V376.7h-9.949V381.7h5.656V409.61H171.477v62.969H149.868V455.764H125.812v36.672H96.725v15.648H53.82v44.846H1309.369V508.083ZM987,413.032l-10.047-18.517a52.394,52.394,0,0,0,8.947-6.662l14.389,15.355A73.061,73.061,0,0,1,987,413.032Zm-37.608-59.413a4.134,4.134,0,0,0,.766.163l-1.523,46.852a50.615,50.615,0,0,1-17.05-3.653Zm-18.434,43.107a50.81,50.81,0,0,1-5-2.43l22.353-41.2a4.118,4.118,0,0,0,.451.268ZM950.835,353.8a4.058,4.058,0,0,0,.832-.128l15.583,44.215a50.764,50.764,0,0,1-16.621,2.785q-.661,0-1.318-.017Zm1.469-.353a4.216,4.216,0,0,0,.639-.358l22.353,41.2a50.928,50.928,0,0,1-7.408,3.371Zm3.762,2.56,29.143,31.1a51.216,51.216,0,0,1-8.739,6.509Zm-1.276-2.349-.842-1.552a4.073,4.073,0,0,0,.242-.377l42.559,19.645A51.235,51.235,0,0,1,985.7,386.652Zm-.314-2.543a4.017,4.017,0,0,0,.218-.932l46.852,1.522a50.593,50.593,0,0,1-4.511,19.057Zm.241-1.608a4,4,0,0,0-.144-.887l43.994-16.2a50.721,50.721,0,0,1,3.022,17.291q0,.659-.015,1.317Zm-.376-1.522a4.21,4.21,0,0,0-.5-.815l34.189-32.036a51.062,51.062,0,0,1,10.306,16.655Zm-.966-1.308a4.072,4.072,0,0,0-.883-.61L970.3,302.707a51.164,51.164,0,0,1,17.264,11.935Zm-1.509-.867a4.162,4.162,0,0,0-.766-.163l1.523-46.851a50.586,50.586,0,0,1,17.05,3.651Zm-1.442-.186a4.059,4.059,0,0,0-.832.128l-15.583-44.215a50.764,50.764,0,0,1,16.621-2.785q.661,0,1.318.017Zm-1.469.353a4.118,4.118,0,0,0-.867.528L916.05,312.32a51.024,51.024,0,0,1,17.321-10.552Zm-1.361.99a4.015,4.015,0,0,0-.525.729L904.51,328.053a51.236,51.236,0,0,1,11.046-15.273Zm-.811,1.342a4.035,4.035,0,0,0-.218.932l-46.852-1.522a50.6,50.6,0,0,1,4.511-19.057Zm-.241,1.609a4.092,4.092,0,0,0,.142.886L902.692,367a50.706,50.706,0,0,1-3.022-17.288c0-.441,0-.88.015-1.318Zm.376,1.521a4.165,4.165,0,0,0,.393.667l-.279.514-33.8,31.67a51.037,51.037,0,0,1-10.306-16.655Zm-.91,3.065-21.22,39.113a51.275,51.275,0,0,1-11.094-8.833Zm-20.53,40.678a51.387,51.387,0,0,0,5.094,2.477l-8,19.479a72.316,72.316,0,0,1-7.139-3.443Zm5.721,2.734a51.663,51.663,0,0,0,17.4,3.727l-.683,21.008A72.745,72.745,0,0,1,923.2,417.4Zm18.08,3.753c.449.011.9.018,1.35.018a51.752,51.752,0,0,0,16.957-2.844l7,19.855a73.084,73.084,0,0,1-23.955,4c-.679,0-1.357-.011-2.033-.03Zm18.947-3.051a51.749,51.749,0,0,0,7.554-3.436L985.824,413.7a72.165,72.165,0,0,1-10.6,4.779Zm34.015,2.7q-.72.722-1.457,1.418L986.4,387.391A52.242,52.242,0,0,0,997.67,371.8l19.12,8.827A73.012,73.012,0,0,1,1002.241,401.326Zm14.834-21.31-19.119-8.826a51.613,51.613,0,0,0,4.6-19.448l21.01.681A72.634,72.634,0,0,1,1017.075,380.017Zm6.545-30.3q0,1.018-.028,2.033l-21-.683q.017-.674.017-1.35a51.75,51.75,0,0,0-3.084-17.642l19.755-7.273A73.049,73.049,0,0,1,1023.619,349.716Zm-19.5-49.661a72.622,72.622,0,0,1,14.921,24.112l-19.759,7.274a52.06,52.06,0,0,0-10.518-17Zm-1.881-1.952q.72.72,1.418,1.459l-15.354,14.386a52.2,52.2,0,0,0-17.619-12.181l8-19.478A72.909,72.909,0,0,1,1002.241,298.1Zm-48.9-21.329a72.778,72.778,0,0,1,24.72,5.259l-8,19.478a51.663,51.663,0,0,0-17.4-3.727Zm-2.709-.048q1.018,0,2.033.028l-.683,21c-.449-.013-.9-.017-1.35-.017a51.75,51.75,0,0,0-16.957,2.843l-7-19.855A73.085,73.085,0,0,1,950.63,276.727Zm-24.595,4.227,7,19.857a52.067,52.067,0,0,0-17.676,10.769l-14.389-15.355A72.592,72.592,0,0,1,926.035,280.954ZM899.018,298.1q.72-.72,1.457-1.416l14.388,15.352a52.25,52.25,0,0,0-11.274,15.589l-19.12-8.827A73.035,73.035,0,0,1,899.018,298.1Zm-14.834,21.311,19.119,8.826a51.619,51.619,0,0,0-4.6,19.448l-21.01-.683A72.645,72.645,0,0,1,884.184,319.415Zm-6.545,30.3q0-1.02.028-2.035l21,.684q-.017.672-.017,1.35a51.752,51.752,0,0,0,3.084,17.64l-19.755,7.273A73.045,73.045,0,0,1,877.639,349.716Zm19.5,49.66a72.62,72.62,0,0,1-14.921-24.112l19.759-7.274a52.059,52.059,0,0,0,10.518,17Zm1.881,1.95q-.72-.718-1.418-1.457l15.354-14.386a52.328,52.328,0,0,0,11.35,9.031l-10.047,18.517A73.3,73.3,0,0,1,899.018,401.326Zm15.449,14.157a74.087,74.087,0,0,0,7.336,3.536l-2.564,6.243a6.1,6.1,0,1,0,.632.241l2.557-6.228a74.774,74.774,0,0,0,25.425,5.41l-.207,6.384a6.08,6.08,0,1,0,.676.021l.207-6.386q1.048.03,2.1.031a75.137,75.137,0,0,0,24.631-4.119l2.187,6.207a6.136,6.136,0,1,0,.629-.252l-2.178-6.179a74.18,74.18,0,0,0,10.893-4.91l28.647,52.8H885.82Z" transform="translate(4.7 19.076)" fill="#9325ef" opacity="0.7"/>
      <g id="Group_12" data-name="Group 12" transform="translate(42.301 338.145)">
        <path id="Path_10" data-name="Path 10" d="M817.671,286.864a1.45,1.45,0,1,0-1.428,1.7A1.583,1.583,0,0,0,817.671,286.864Z" transform="translate(272.937 -285.163)" fill="#9325ef"/>
        <path id="Path_11" data-name="Path 11" d="M1288.586,492.681l-8.863-59.287H1261.6V384.2h2.241v-4.451h-8.8V360.584h-1.073v19.163h-6.082v-15.7h-1.073v15.7h-36.664V384.2h2.5v99.819h-41.86V439.305h-23.839V329.432h2.18v-5.391h-4.76v-6.9h-5.48v-17.33h-6.612V287.58h-1.59v12.232h-3.564l-2.156,6.846h-14.426v10.483h-37.76v6.9h-4.76v5.391h2.181v71.487h-31.594v70.24l-35.058-15.533V387.45h5.657v-5.009h-9.95v-13.6H956.647v13.6H942.728v-13.6h-7.155v13.6h-7.156v-13.6h-7.871v13.6H904.089v5.009h2.5v94.5H890.611v-.991h-2.893V454.026h2.893v-2.16h-2.893V424.938h2.893v-2.16h-2.893V395.85h2.893v-2.16h-2.893V366.761h2.893V364.6h-2.893V337.673h2.893v-2.16h-2.893V307.645h4.956v-2.167H895.2V299.57H848.13V293h1.531v-1.9H824.036V293h1.53v6.571H813.9v5.908h2.521v2.167h4.956v27.868h-2.893v2.16h2.893V364.6h-2.893v2.16h2.893V393.69h-2.893v2.16h2.893v26.929h-2.893v2.16h2.893v26.929h-2.893v2.16h2.893v26.929h-2.893v2.16h2.893v22.005H805.316V420.087h-64.64v61.859H730.182v-192.7h-7.765v4.96l-14.328,3.505v-3.222h-7.764v5.121L686,303.114V299.42h-7.765v5.594l-14.327,3.5v-3.048h-7.765v4.948l-14.328,3.5V311.3h-7.764V500.531H623.126V399.645H582.667v62.038H541.189v-52.9H536.08V391.406h3.033V389.66H525.69V384.2h-1.431v5.462h-4.293V361.619h-1.073V389.66H513.3v1.746h3.29v17.373H489.216v40.357h-26.65l-13.919,51.4H420.722V332.726H383.747v-6.011h2.1V324.6h-28v2.11h2.2v130.6H342.61V413.9h6.2v-3.931H304.939V383.733h-8.369v-5.391h-18.68v5.391h-15.2V477.4H212.828V407.93H170.841V462.8H134.4v35.108H108.132V453.774H73.582V491.4H42.3v26.636H1331.242V492.681Z" transform="translate(-42.301 -284.177)" fill="#9325ef"/>
      </g>
    </g>
  </g>
</svg>
