<svg xmlns="http://www.w3.org/2000/svg" xmlns:xlink="http://www.w3.org/1999/xlink" width="1200" height="382" viewBox="0 0 1080 382">
  <defs>
    <clipPath id="clip-path">
      <rect id="Rectangle_17" data-name="Rectangle 17" width="600" height="160" fill="#fff" stroke="#707070" stroke-width="1"/>
    </clipPath>
  </defs>
  <g id="clouds" clip-path="url(#clip-path)">
    <g id="Group_13" data-name="Group 13" transform="translate(-11.999 -48.318)" opacity="0.6">
      <path id="Path_12" data-name="Path 12" d="M221.573,203.013c-1.449-1.349-3.557-3.795-7.719-2.824-1.727-1.435-5.673-4.724-10.962.089-.057,0-.114-.005-.168-.008-1.516-4.462-8.411-8.141-13.043-2.238-1.227-1.062-2.481-2.057-3.77-2.968.865-7.819-9.584-16.308-16.849-7.719a66.389,66.389,0,0,0-7.165-1.487c-1.089-3.995-6.051-8.865-11.376-3.311-3.7-10.795-17.795-16.635-27.646-7.1a10.11,10.11,0,0,0-5.568-.746c-2.114-8.787-11.054-16.938-21.349-13.624-.449-.195-.924-.316-1.395-.47-6.927-10.63-30.53-16.708-42.849-8.527C47.221,140.3,34.656,130.772,21,133.147V233.691c.851-.154,1.686-.322,2.489-.508,3.611,14.692,78.871,14.149,85.273.668,9.043,2.135,14.681.043,18-2.522a10.452,10.452,0,0,0,13.06-2.305,19.563,19.563,0,0,0,10.357-.435c6.178,8.441,22.189,8.257,27.565-3.381,2.243,1.151,5.941,3.678,12.062-.1a7.426,7.426,0,0,0,12.359-.246,7.466,7.466,0,0,0,9.962-1.657c.468-.068.916-.135,1.373-.208,1.911.392,3.624.87,6.8-1.343C237.146,217.737,241.021,208.188,221.573,203.013Z" transform="translate(-9 99.087)" fill="#9325ef" opacity="0.7"/>
      <path id="Path_13" data-name="Path 13" d="M820.026,251.22c0-5.257-18.573-9.535-42.07-9.9.159-12.605-13.327-23.211-25.249-14.195-.043-.076-.086-.146-.124-.219-4.065-21.705-24.627-38.035-46.77-32.111-5.776-15.424-27.722-20.56-38.981-6.468-5.295-7.438-14.495-13.973-25.738-12.013,10.443-41.424-37.495-70.725-64.992-39.379-9.354-25.741-44.56-28.93-58.13-5.281-5.016-7.827-14.338-13.892-25.408-10.438-10.122-22.295-41.868-22.819-52.938-.938-7.2-.584-16.254,3.962-20.614,11.973-13.708-15.649-41.968-15.211-55.422,2.246-23-19.565-62.349-14.7-80.852,10.041-23.538-11.757-51.635,9.589-49.384,37.233-8.422-3.035-21.595,2.6-25.7,12.314-16.605-10.065-40.914.343-46.87,19.951-9.735-1.759-21.441,6.622-22.441,18.895-5.278-.43-11.87,3.7-13.743,10.824-9.908-1.395-28.611,2.841-31.143,8.3-44.57-.1-36.278,25.554,2.63,22.587,4.087,3.608,16.495,7.049,27.67,6.287,1.486,6.392,8.341,12.941,16.319,10.081,6.016,9,19.122,14.019,30.265,7.705,6.135,6.741,19.524,8.568,27.411-.132,10.435,15.427,35.151,18.619,49.076,4.143,4.722,12.432,23.4,15.419,30.949,2.027,10.192,7.141,27.411,7.13,38.176-2.511,5.427,6.9,18.549,9.019,25.83.219,7.954,14.73,30.443,18.7,42.6,4.811,18.66,18.062,65.271,16.241,80.595-5.822,6.938,12.024,21.411,19.605,36.233,13.819,7.365,14.708,30.365,16.076,38.97.168,23.808,20.078,62.089,11.862,77.679-14.657,11.543,14.462,36.522,14.768,48.633-.911a19.977,19.977,0,0,0,14.895-.389c20.705,8.5,63.979-.176,66.946-18.922,4.481.395,10.214-1.854,14.122-7.292,8.195,5.37,21.651-1.032,23.043-12.408C805.3,259.8,820.026,255.9,820.026,251.22Z" transform="translate(-20.922 59.388)" fill="#9325ef" opacity="0.7"/>
      <path id="Path_14" data-name="Path 14" d="M370.314,176.6c-6.446-.686-13.346-1.027-20.205-1.084-.17-9.357-15.13-14.47-20.778-4.405-1.289-18.6-52.9-29.338-61.76-11.919-2.181-20.532-32.141-25.938-41.141-6.627a65.883,65.883,0,0,0-9.814-1.511c2.8-15.03-17.87-23.538-26.692-10.357-6.395-5.5-17.66-10.265-28.07-10.478-10.881-31.324-52.987-39.689-75.481-17.6.808-17.781-21.5-31.6-37.824-21.292C46.064,77.537,36.7,64.24,21,59.318V226.632c21.476,13.127,51,5.808,64.392-15.584,9.3,16.422,36.595,19.578,49.533,4.535,16.514,11.476,42.695,9.465,57.135-4.757,17.943,5.554,38.738,2.773,52.2-6.324a90.189,90.189,0,0,0,27.373.37c8.359,10.859,28.873,9.711,35.73-3.811.046-.092.07-.189.119-.281,12.646-.684,24.354-3.168,31.8-7.124C366.638,196.332,429.089,185.227,370.314,176.6Z" transform="translate(-9 -11)" fill="#9325ef" opacity="0.5"/>
      <path id="Path_15" data-name="Path 15" d="M691.193,213.419c-5.332-.568-11.043-.849-16.719-.895.024-6.954-12.3-12.411-17.192-3.649-1.068-15.389-43.776-24.276-51.105-9.862-1.727-16.805-26.5-21.462-34.046-5.484a54.565,54.565,0,0,0-8.119-1.249c2.486-11.173-14.43-20.081-22.087-8.57-4.305-3.951-14.873-8.646-23.23-8.67-8.368-25.276-43.865-33.046-62.457-14.565.63-14.557-17.573-26.143-31.3-17.619-3.027-24.819-35.695-36.657-54.257-20.176-11.522-23.743-46.987-23.17-57.622.989-24.4-23.695-66.476-10.43-73.089,22.841-14.565-.132-29.587,10.214-32.549,26.789a21.131,21.131,0,0,0-19.132,5.527c-11.495-10.095-32.835-7.243-40.916,7.022-5.781-4.159-17.489-.995-15.9,9.776a23.04,23.04,0,0,0-3.786,1.235c-3.035-8-20.557-7.7-19.011,5.576a20.788,20.788,0,0,0-4.816,1.67c-3.2-.724-9.524,1.013-11.43,6.305-3.889-.924-11.395-.3-15.37,4.151-36.451.362-31.606,9.7-.005,9.522,2.865,3.419,12.089,6.492,18.876,3.016,3.722,7.416,15.322,11.822,24.908,8.216,5.384,5.951,19.068,8.516,27.349,3.454,8.7,10.311,28.546,9.724,36.635-2.438,5.495,18.049,32.287,20.908,41.641,4.008,15.635,22.876,52.254,23.53,69.081,2.078,10,18.549,39.724,18.181,49.089-1.354,6.692,20.4,36.281,21.784,44.462,1.459,14.67,23.554,51.949,23.189,66.333-.6,7.273,12.978,30.116,16.549,40.987,3.754,13.449,9.408,35.33,7.822,47.276-3.935,14.851,4.595,32.057,2.295,43.2-5.235a74.631,74.631,0,0,0,22.651.308c6.268,8.511,24.035,8.259,29.562-3.154.038-.076.059-.157.1-.235,10.465-.562,20.151-2.619,26.316-5.892C687.525,229.767,739.855,220.648,691.193,213.419Z" transform="translate(12.941 26.135)" fill="#9325ef" opacity="0.9"/>
      <path id="Path_16" data-name="Path 16" d="M125.334,130.918A58.3,58.3,0,0,0,113.3,130.2c-.622-5.095-14.605-8.341-17.746-1.219-2.63-2.811-9.116-4.851-14.027-.476a12.565,12.565,0,0,0-9.2-5.238c-1.151-3.238-6.659-8.127-12.365-5.265-4.33-7.916-17.062-11.951-25.749-4.405A23.81,23.81,0,0,0,21,108.8v47.773a23.838,23.838,0,0,0,16.354-7.627c6.259,5.362,19.414,4.3,24.492-4.751,4.257,5.051,14.268,6.062,19.678-1.105a10.213,10.213,0,0,0,14.265-.765c1.776,1.841,7.835,3.284,11.387-.924,2.93,1.976,15.332,2.6,19.819-1.149C148.626,142.418,146.418,134.267,125.334,130.918Z" transform="translate(-9 76.252)" fill="#9325ef" opacity="0.5"/>
      <path id="Path_17" data-name="Path 17" d="M37.482,215.88a57.142,57.142,0,0,1,11.754-.7c.608-4.973,14.262-8.143,17.33-1.192,2.568-2.741,8.9-4.735,13.7-.462a12.269,12.269,0,0,1,8.981-5.116c1.124-3.159,6.5-7.935,12.076-5.141,4.227-7.727,16.662-11.668,25.143-4.3a23.925,23.925,0,0,1,23.524-2.724c1.362-8.057,9.365-16.289,19.781-13.962-.054-9.151,8.735-19.07,19.987-16.43,5.878-24.857,38.622-37.495,60.238-21.435,2.127-23.906,33.387-33.979,49.414-16.246,3.451-41.487,53.019-59.941,83.146-34.949C418.6,44.419,490.7,63.876,502.1,118.385c29.733-9.327,62.941,13.038,65.914,43.784,11.581-4.716,29.984,1.17,36.227,13.627,12.873-4.6,32.3,2.03,39.687,14.527,6.524-5.065,20.349-1.854,22.992,8.335a12.05,12.05,0,0,1,5.3-.889V228.6a13.2,13.2,0,0,1-1.87-1.643c-5.114,7.1-18.427,8.008-24.505-.932-9.838,21.641-43.9,26.035-59.068,6.205-11.67,27.481-50.435,23.543-58.506-2.722-8.473,24.543-44.776,26.643-56.573,3.714-15.1,27.878-59.343,33.657-81.422,9.546-9.854,17.651-38.762,20.97-52.541,4.389-20.587,19.562-60.941,17.627-79.354-5.7-14.23,12.584-41.884,10.016-53.295-7.087-10.759,11.978-35.514,10.657-44.36-5.027-6.557,12.373-26.681,15.97-37.333,4.138-6.111,5.238-18.957,4.2-23.916-4.641-4.154,4.935-13.932,5.919-19.214-1.078a9.973,9.973,0,0,1-13.93-.746c-1.735,1.795-7.651,3.205-11.119-.9-2.86,1.927-14.973,2.541-19.354-1.124C14.739,227.109,16.9,219.15,37.482,215.88Z" transform="translate(485.779 157.177)" fill="#9325ef" opacity="0.25"/>
      <path id="Path_18" data-name="Path 18" d="M71.708,271.729c1.565-9.649,13.546-16.522,23.192-8.738,4.586-4.773,9.568-8.089,18.354-4.1,1.957-10.516,17.776-15.633,25.287-5.243,5.708-4.5,11.073-7.47,20.754-4.146.592-13.027,20.192-18.357,26.776-5.116a19.708,19.708,0,0,1,21.105-1.857c6.989-5.205,18.451-7.627,28.387-3.351,3.841-17.135,24.368-28.078,41.6-18.97,7.619-13.173,30.924-11.641,36.214,4.213,2.051-17.435,22.308-29.568,39.414-20.543a36.969,36.969,0,0,1,29.411-19.7c-2.7-10.846,9.181-25.457,22.687-19.722,4.765-19.057,27.065-31.487,46.852-23.005,3.938-56.168,80.325-53.719,85.216-2.4,20.932-19.854,56.26-5.032,57.849,22.954,11.319-5.181,28.438,2.978,31.049,16.349a44.4,44.4,0,0,1,23.678-7.13V306.67c-15.8,8.311-41.119,1.878-50.627-14.711-17.392,28.849-62.481,39.306-91.468,18.541-9.165,11.978-31.438,14.446-43.068,1.535-9.1,16.581-36.608,19.13-48.652,2.816C403.1,340.789,364.506,338.178,354.3,312.6c-9.749,11.3-29.824,14.751-43.625,5.332-14.087,8.024-36.505-1.024-40.584-17.849-7.481,9.041-22.341,13.638-34.884,7.395-5.108,5.262-18.611,4.205-21.968-5.3-12.454,2.357-30.889,2.335-44.741-1.049-16.087,17.83-39.387,6.689-42.646-3.673-11.451-.922-21.5-3.038-28.911-5.927-4.024,5.219-16.343,5.1-19.257-4.062C4.515,287.273,1.815,272.84,71.708,271.729Z" transform="translate(442.779 -51.827)" fill="#9325ef" opacity="0.9"/>
      <path id="Path_19" data-name="Path 19" d="M214.386,207.7c-6.446-.686-13.346-1.027-20.205-1.084-.173-9.357-15.127-14.47-20.776-4.408-1.289-18.6-52.9-29.338-61.762-11.916C109.461,169.764,79.5,164.359,70.5,183.67a65.476,65.476,0,0,0-9.814-1.511c2.8-15.03-17.87-23.538-26.692-10.357a46.343,46.343,0,0,0-13-7.508v87.011a46.611,46.611,0,0,0,15.132-9.376c17.946,5.554,38.738,2.773,52.206-6.324a90.274,90.274,0,0,0,27.373.37c8.357,10.859,28.87,9.711,35.727-3.814.046-.089.07-.186.122-.281,12.643-.681,24.351-3.165,31.8-7.122C210.713,227.435,273.162,216.329,214.386,207.7Z" transform="translate(-9 178.744)" fill="#9325ef"/>
      <path id="Path_21" data-name="Path 21" d="M909.135,271.379c-6.432-.687-13.322-1.024-20.168-1.081-.17-9.341-15.1-14.443-20.738-4.4-1.287-18.565-52.806-29.284-61.646-11.895-2.178-20.495-32.084-25.889-41.065-6.616a65.27,65.27,0,0,0-9.795-1.505c2.762-14.749-17.757-23.63-26.643-10.338-6.384-5.487-17.627-10.249-28.019-10.459-10.827-31.276-52.944-39.579-75.341-17.57.808-17.749-21.462-31.541-37.754-21.254-4.2-30.841-43.192-43.884-65.443-24.335-14.076-28.816-56.6-27.978-69.506,1.195-29.414-28.589-80.143-12.676-88.165,27.551-17.654-.454-35.943,12.884-39.262,32.314a25.5,25.5,0,0,0-23.081,6.668c-14.181-12.384-39.762-8.584-49.354,8.47-6.968-5.714-21.484-.113-19.181,11.789a28.01,28.01,0,0,0-4.568,1.492c-4.3-10.908-24.873-8.051-22.93,6.724a24.949,24.949,0,0,0-5.811,2.016c-4.132-.908-11.651,1.316-13.787,7.608-4.9-1.443-14.449.135-18.543,5.005-43.665.322-38.527,11.722-.005,11.484,4.065,4.665,14.427,7.578,22.768,3.641,4.659,9.311,18.927,14.211,30.046,9.908,6.554,7.251,23.249,10.3,32.989,4.17,10.608,12.505,34.538,11.746,44.192-2.941,6.768,21.949,38.976,25.211,50.23,4.832,19.089,27.727,62.925,28.416,83.327,2.505,12.324,22.581,47.86,21.916,59.216-1.632,8.186,24.749,43.733,26.289,53.633,1.759,18.608,28.981,62.449,27.741,80.011-.724,9.281,16.392,36.524,19.541,49.441,4.527,16.484,11.454,42.614,9.446,57.027-4.746,17.914,5.543,38.668,2.765,52.108-6.313a90.044,90.044,0,0,0,27.324.368c8.341,10.841,28.816,9.695,35.66-3.8.049-.092.073-.189.122-.281,12.622-.681,24.308-3.162,31.741-7.108C905.467,291.071,967.8,279.987,909.135,271.379Z" transform="translate(115.062 -92.393)" fill="#9325ef" opacity="0.32"/>
    </g>
  </g>
</svg>
